# xmcd
#
# Track frame offsets: 
#        150
#        18078
#        35158
#        52816
#        70771
#        86589
#        107213
#        129696
#        153392
#        173285
#        193733
#        215832
#        232753
#
# Disc length: 3357 seconds
#
# Revision: 1
# Processed by: cddbd v1.5.1PL0 Copyright (c) Steve Scherf et al.
# Submitted via: ExactAudioCopy v0.95a3
#
DISCID=a60d1b0d
DTITLE=Ray Charles - Genius Loves Company
DYEAR=2004
DGENRE=Soul
TTITLE0=Here We Go Again (with Norah J
TTITLE1=Sweet Potato Pie (with James T
TTITLE2=You Don't Know Me (with Diana
TTITLE3=Sorry Seems To Be The Hardest
TTITLE4=Fever (with Natalie Cole)
TTITLE5=Do I Ever Cross Your Mind? (wi
TTITLE6=It Was A Very Good Year (with
TTITLE7=Hey Girl (with Michael McDonal
TTITLE8=Sinner's Prayer (with BB King)
TTITLE9=Heaven Help Us All (with Glady
TTITLE10=Somewhere Over The Rainbow (wi
TTITLE11=Crazy Love (with Van Morrison)
TTITLE12=Ary my love (itoshi no ary)
EXTD=
EXTT0=
EXTT1=
EXTT2=
EXTT3=
EXTT4=
EXTT5=
EXTT6=
EXTT7=
EXTT8=
EXTT9=
EXTT10=
EXTT11=
EXTT12=
PLAYORDER=
